<?xml version="1.0" encoding="utf-8"?>
<!-- Generator: Adobe Illustrator 27.6.1, SVG Export Plug-In . SVG Version: 6.00 Build 0)  -->
<svg version="1.1" id="Capa_1" xmlns="http://www.w3.org/2000/svg" xmlns:xlink="http://www.w3.org/1999/xlink" x="0px" y="0px"
	 viewBox="0 0 512 512" style="enable-background:new 0 0 512 512;" xml:space="preserve">
<style type="text/css">
	.st0{fill:#FFFFFF;}
</style>
<g>
	<path class="st0" d="M510.5,150.4C508.7,110.9,497.6,71.5,469,43C440.4,14.3,401,3.3,361.6,1.5C334.2,0.3,325.5,0,256,0
		s-78.2,0.3-105.6,1.5C110.9,3.3,71.6,14.4,43,43C14.2,71.7,3.3,110.9,1.5,150.4C0.3,177.8,0,186.5,0,256s0.3,78.2,1.5,105.6
		C3.3,401.1,14.4,440.5,43,469c28.7,28.7,68,39.6,107.5,41.4c27.3,1.2,36,1.5,105.6,1.5s78.2-0.3,105.6-1.5
		c39.5-1.8,78.9-12.8,107.5-41.4c28.7-28.7,39.6-67.9,41.4-107.5c1.2-27.3,1.5-36,1.5-105.6S511.7,177.8,510.5,150.4z M256,387.5
		c-72.6,0-131.5-58.9-131.5-131.5S183.4,124.5,256,124.5S387.5,183.4,387.5,256S328.6,387.5,256,387.5z M392.7,150.1
		c-17,0-30.7-13.8-30.7-30.7c0-17,13.8-30.7,30.7-30.7c17,0,30.7,13.8,30.7,30.7C423.4,136.3,409.6,150.1,392.7,150.1z"/>
	<circle class="st0" cx="256" cy="256" r="85.3"/>
</g>
</svg>
