<?xml version="1.0" encoding="utf-8"?>
<!-- Generator: Adobe Illustrator 27.6.1, SVG Export Plug-In . SVG Version: 6.00 Build 0)  -->
<svg version="1.1" id="Capa_1" xmlns="http://www.w3.org/2000/svg" xmlns:xlink="http://www.w3.org/1999/xlink" x="0px" y="0px"
	 viewBox="0 0 40 40" style="enable-background:new 0 0 40 40;" xml:space="preserve">
<style type="text/css">
	.st0{fill:#FFFFFF;}
</style>
<g>
	<path class="st0" d="M40,8.6c0-0.7-0.1-1.5-0.3-2.2c-0.3-1-0.7-1.9-1.3-2.7c-0.7-1-1.6-1.8-2.6-2.4C34.9,0.8,34,0.4,33,0.2
		C32.4,0.1,31.8,0,31.2,0c-2.5,0-5.1,0-7.6,0C18.7,0,13.9,0,9,0C8.2,0,7.4,0.1,6.6,0.3C6,0.4,5.4,0.6,4.9,0.9
		c-1,0.5-1.8,1.1-2.5,1.9C1.8,3.4,1.4,4.1,1,4.7C0.5,5.5,0.3,6.3,0.1,7.1C0,7.5,0,7.9,0,8.3c0,3.9,0,7.9,0,11.8h0
		c0,3.8,0,7.7,0,11.5c0,0.9,0.1,1.7,0.4,2.5c0.4,1.2,1,2.2,1.9,3.1c1,1,2.1,1.8,3.4,2.3C6.6,39.8,7.5,40,8.4,40c1.8,0,3.6,0,5.4,0
		c5.9,0,11.8,0,17.7,0c0.6,0,1.2-0.1,1.7-0.2c0.8-0.2,1.5-0.4,2.2-0.8c1.2-0.7,2.2-1.6,3-2.7c1-1.4,1.5-3,1.5-4.7
		C40,23.9,40,16.3,40,8.6z M36.9,31.3c0,0.5,0,0.9-0.1,1.4c-0.2,0.7-0.5,1.4-0.9,1.9c-0.7,1-1.7,1.7-2.9,2.1
		c-0.7,0.3-1.5,0.3-2.3,0.3c-2.1,0-4.1,0-6.2,0c-5.2,0-10.3,0-15.5,0c-1.2,0-2.3-0.3-3.3-0.9c-0.6-0.4-1.2-0.9-1.6-1.5
		c-0.3-0.5-0.7-1-0.8-1.6c-0.1-0.4-0.2-0.8-0.2-1.2c0-2,0-4,0-6.1c0-1.9,0-3.9,0-5.8h0c0-3.8,0-7.7,0-11.5c0-1.5,0.6-2.8,1.7-3.9
		C5.5,4,6.3,3.5,7.2,3.2C7.8,3.1,8.4,3,9,3c7.3,0,14.6,0,21.9,0c1.5,0,2.8,0.4,4,1.4c0.9,0.7,1.5,1.7,1.9,2.8c0.2,0.5,0.2,1,0.2,1.6
		C36.9,16.3,36.9,23.8,36.9,31.3z"/>
	<path class="st0" d="M34.4,16.9c-0.2-1.2-0.6-2.3-1.1-3.4c-0.5-0.9-1-1.8-1.7-2.6c-1.1-1.4-2.4-2.5-3.9-3.4c-0.9-0.5-1.8-1-2.8-1.3
		c-0.8-0.3-1.7-0.5-2.5-0.7c-0.8-0.1-1.6-0.2-2.6-0.2c-0.7,0-1.5,0.1-2.3,0.2c-0.7,0.1-1.4,0.3-2,0.5c-0.8,0.2-1.5,0.5-2.2,0.9
		c-1,0.5-1.9,1.1-2.8,1.8c-0.8,0.7-1.5,1.4-2.1,2.2c-0.6,0.7-1.1,1.5-1.5,2.4c-0.3,0.6-0.5,1.2-0.8,1.9c-0.1,0.4-0.2,0.7-0.3,1.1
		c-0.1,0.4-0.1,0.7-0.2,1.1c-0.1,0.3,0,0.6-0.1,1c-0.1,0.7,0,1.4,0,2c0.1,0.8,0.3,1.6,0.5,2.3c0.3,1,0.7,1.9,1.2,2.7
		C8,26.7,9,27.9,10,29c1.4,1.4,2.9,2.6,4.6,3.6c1.2,0.7,2.4,1.4,3.7,1.9c1,0.4,1.9,0.5,2.9,0.1c0.8-0.3,1.6-0.6,2.3-1
		c1.3-0.7,2.5-1.4,3.6-2.3c1.4-1.1,2.7-2.2,3.8-3.5c1.1-1.3,2-2.7,2.7-4.2c0.5-1,0.8-2.1,0.9-3.3C34.7,19.2,34.7,18.1,34.4,16.9z
		 M17.8,27.6c-0.1,0.4-0.4,0.7-0.8,0.7c-0.1,0-0.3,0-0.4,0c-1.2-0.1-2.4-0.4-3.5-1c-1.6-0.8-2.8-2-3.7-3.5c-0.4-0.7-0.8-1.4-1-2.2
		c-0.2-0.9-0.4-1.8-0.3-2.7c0-0.3,0.1-0.6,0.3-0.8c0.3-0.4,0.8-0.5,1.2-0.5c0.7,0,1.3,0.2,1.9,0.5c1.5,0.6,2.8,1.6,3.8,2.9
		c0.8,1,1.5,2.1,2,3.3c0.2,0.5,0.3,0.9,0.4,1.4c0.1,0.4,0.1,0.8,0.2,1.3C17.8,27.1,17.8,27.4,17.8,27.6z M21.3,31.7
		C21.2,31.9,21,32,20.8,32c-0.1,0-0.1,0-0.2,0c-0.2,0-0.5,0-0.7,0c-0.3,0-0.6,0-0.9,0c-0.3-0.1-0.4-0.4-0.4-0.6
		c0-0.3,0.2-0.5,0.5-0.5c0.2,0,0.3,0,0.5,0c0.4,0,0.7,0,1.1,0C21.2,31,21.4,31.4,21.3,31.7z M31.9,20.1c-0.1,0.5-0.2,1-0.3,1.5
		c-0.2,0.8-0.6,1.5-1,2.2c-0.6,1.1-1.4,2-2.4,2.7c-0.8,0.6-1.8,1.1-2.8,1.5c-0.6,0.2-1.3,0.4-2,0.4c-0.1,0-0.2,0-0.3,0
		c-0.5,0-0.9-0.4-0.9-0.9c0-0.1,0-0.3,0-0.4c0-0.6,0.1-1.1,0.2-1.6c0.2-0.8,0.4-1.5,0.8-2.2c0.5-1,1.2-1.9,2-2.8
		c0.7-0.7,1.4-1.3,2.2-1.8c0.9-0.5,1.9-0.9,2.9-1c0.4,0,0.7,0.1,1.1,0.3c0.3,0.2,0.4,0.4,0.5,0.7C31.9,19.1,32,19.6,31.9,20.1z"/>
</g>
</svg>
