<?xml version="1.0" encoding="utf-8"?>
<!-- Generator: Adobe Illustrator 27.6.1, SVG Export Plug-In . SVG Version: 6.00 Build 0)  -->
<svg version="1.1" id="Capa_1" xmlns="http://www.w3.org/2000/svg" xmlns:xlink="http://www.w3.org/1999/xlink" x="0px" y="0px"
	 viewBox="0 0 24 24" style="enable-background:new 0 0 24 24;" xml:space="preserve">
<style type="text/css">
	.st0{fill:#FFFFFF;}
</style>
<polygon class="st0" points="6.9,6.2 15.7,17.8 17.1,17.8 8.3,6.2 "/>
<path class="st0" d="M0,2.8v18.3C0,22.7,1.3,24,2.8,24h18.3c1.6,0,2.8-1.3,2.8-2.8V2.8C24,1.3,22.7,0,21.2,0H2.8C1.3,0,0,1.3,0,2.8z
	 M15.1,19.2l-3.9-5.1l-4.4,5.1H4.3l5.7-6.6L4,4.8h5.1l3.5,4.6l4-4.6h2.5l-5.4,6.1l6.3,8.3L15.1,19.2L15.1,19.2z"/>
</svg>
